<svg id="parco" xmlns="http://www.w3.org/2000/svg" width="88.853" height="88.794" viewBox="0 0 88.853 88.794">
  <g id="Raggruppa_24" data-name="Raggruppa 24" transform="translate(0 0)">
    <g id="Raggruppa_23" data-name="Raggruppa 23">
      <path id="Tracciato_6109" data-name="Tracciato 6109" d="M51.753,63.848,39.82,47.139h4.609A2.6,2.6,0,0,0,46.6,43.092L35.41,26.314h3.813A2.6,2.6,0,0,0,41.3,22.15l-13.016-21a2.7,2.7,0,0,0-4.164,0l-13.016,21a2.6,2.6,0,0,0,2.082,4.164H17L5.819,43.092a2.6,2.6,0,0,0,2.166,4.047h4.609L.488,63.848a2.6,2.6,0,0,0,2.117,4.116h47.03a2.6,2.6,0,0,0,2.118-4.116Z" transform="translate(-0.003 -0.168)" fill="#060"/>
    </g>
  </g>
  <g id="Raggruppa_26" data-name="Raggruppa 26" transform="translate(0 73.002)">
    <g id="Raggruppa_25" data-name="Raggruppa 25">
      <path id="Tracciato_6110" data-name="Tracciato 6110" d="M86.25,431.418h-18.4V420.832H57.442v10.586H31.411V420.832H21v10.586H2.6a2.6,2.6,0,1,0,0,5.206H86.25a2.6,2.6,0,1,0,0-5.206Z" transform="translate(0 -420.832)" fill="#060"/>
    </g>
  </g>
  <g id="Raggruppa_28" data-name="Raggruppa 28" transform="translate(47.03 0)">
    <g id="Raggruppa_27" data-name="Raggruppa 27">
      <path id="Tracciato_6111" data-name="Tracciato 6111" d="M312.34,63.848,300.233,47.139h4.609a2.6,2.6,0,0,0,2.166-4.047L295.823,26.314h3.813a2.6,2.6,0,0,0,2.082-4.164l-13.016-21a2.7,2.7,0,0,0-4.164,0l-13.016,21a2.6,2.6,0,0,0,2.082,4.164h3.813l-5.891,8.837L274.9,40.2a7.817,7.817,0,0,1-2.006,10.723l7.069,9.9a7.718,7.718,0,0,1,.93,7.141h29.333a2.6,2.6,0,0,0,2.118-4.116Z" transform="translate(-271.002 -0.168)" fill="#060"/>
    </g>
  </g>
</svg>
